<?xml version="1.0" encoding="UTF-8" standalone="no"?>
<!DOCTYPE svg PUBLIC "-//W3C//DTD SVG 1.1//EN" "http://www.w3.org/Graphics/SVG/1.1/DTD/svg11.dtd">
<svg width="100%" height="100%" viewBox="0 0 104 38" version="1.1" xmlns="http://www.w3.org/2000/svg" xmlns:xlink="http://www.w3.org/1999/xlink" xml:space="preserve" xmlns:serif="http://www.serif.com/" style="fill-rule:evenodd;clip-rule:evenodd;stroke-linejoin:round;stroke-miterlimit:2;">
    <g id="Artboard1" transform="matrix(0.13,0,0,0.0633333,0,0)">
        <rect x="0" y="0" width="800" height="600" style="fill:none;"/>
        <g transform="matrix(0.669348,0,0,1.37393,132.261,-112.178)">
            <g transform="matrix(4.16667,0,0,4.16667,161.257,440.704)">
                <path d="M0,-72.84C-5.361,-72.84 -10.512,-71.701 -15.32,-69.453C-14.495,-68.735 -13.694,-67.984 -12.93,-67.213C-8.805,-68.956 -4.457,-69.84 0,-69.84C18.428,-69.84 33.42,-54.848 33.42,-36.42C33.42,-17.992 18.428,-3 0,-3C-1.109,-3 -2.251,-3.066 -3.477,-3.199C-3.874,-2.208 -4.301,-1.241 -4.751,-0.313C-3.171,-0.106 -1.576,0 0,0C20.082,0 36.42,-16.338 36.42,-36.42C36.42,-56.502 20.082,-72.84 0,-72.84" style="fill:white;fill-rule:nonzero;"/>
            </g>
            <g transform="matrix(4.16667,0,0,4.16667,-174.612,288.954)">
                <path d="M0,0C0,20.082 16.338,36.42 36.42,36.42C37.982,36.42 39.565,36.316 41.135,36.112C40.672,35.166 40.241,34.198 39.849,33.225C38.628,33.356 37.503,33.42 36.42,33.42C17.992,33.42 3,18.428 3,0C3,-18.428 17.992,-33.42 36.42,-33.42C40.87,-33.42 45.213,-32.539 49.333,-30.801C50.095,-31.568 50.896,-32.318 51.725,-33.04C46.918,-35.283 41.772,-36.42 36.42,-36.42C16.338,-36.42 0,-20.082 0,0" style="fill:white;fill-rule:nonzero;"/>
            </g>
            <g transform="matrix(4.16667,0,0,4.16667,142.145,309.606)">
                <path d="M0,13.979C6.733,12.221 11.849,8.406 15.613,2.341C16.049,1.638 15.832,0.711 15.13,0.276C14.791,0.066 14.39,0 13.996,0.089C13.606,0.18 13.275,0.418 13.064,0.759C10.147,5.458 6.374,8.605 1.533,10.372C1.073,11.602 0.559,12.81 0,13.979" style="fill:white;fill-rule:nonzero;"/>
            </g>
            <g transform="matrix(4.16667,0,0,4.16667,-64.2029,368.279)">
                <path d="M0,-13.993C-0.113,-14.018 -0.229,-14.032 -0.345,-14.032C-0.621,-14.032 -0.894,-13.954 -1.133,-13.806C-1.835,-13.37 -2.052,-12.443 -1.616,-11.74C2.248,-5.515 7.543,-1.654 14.55,0.039C13.994,-1.113 13.482,-2.302 13.023,-3.509C7.916,-5.234 3.959,-8.447 0.933,-13.322C0.722,-13.663 0.391,-13.901 0,-13.993" style="fill:white;fill-rule:nonzero;"/>
            </g>
            <g transform="matrix(-4.16667,0,0,4.16667,69.2279,297.915)">
                <path d="M-0.001,-8.967C2.472,-8.967 4.483,-6.955 4.483,-4.484C4.483,-2.012 2.472,0 -0.001,0C-2.473,0 -4.484,-2.012 -4.484,-4.484C-4.484,-6.955 -2.473,-8.967 -0.001,-8.967" style="fill:white;fill-rule:nonzero;"/>
            </g>
            <g transform="matrix(0,-4.16667,-4.16667,0,-40.5258,250.896)">
                <path d="M-4.484,-4.484C-2.012,-4.484 -0,-2.472 -0,-0C-0,2.471 -2.012,4.484 -4.484,4.484C-6.956,4.484 -8.967,2.471 -8.967,-0C-8.967,-2.472 -6.956,-4.484 -4.484,-4.484" style="fill:white;fill-rule:nonzero;"/>
            </g>
            <g transform="matrix(0,-4.16667,-4.16667,0,178.82,250.894)">
                <path d="M-4.484,-4.484C-2.012,-4.484 -0.001,-2.472 -0.001,-0.001C-0.001,2.472 -2.012,4.484 -4.484,4.484C-6.956,4.484 -8.967,2.472 -8.967,-0.001C-8.967,-2.472 -6.956,-4.484 -4.484,-4.484" style="fill:white;fill-rule:nonzero;"/>
            </g>
            <g transform="matrix(4.16667,0,0,4.16667,498.484,296.967)">
                <path d="M0,-5.34C-4.805,-8.116 -10.785,-9.185 -14.736,-11.107C-17.194,-12.281 -18.796,-13.669 -18.796,-15.912C-18.796,-18.475 -16.873,-20.397 -13.241,-20.397C-10.466,-20.397 -8.33,-19.543 -7.048,-18.475C-5.659,-17.3 -5.019,-16.339 -3.951,-15.378C-2.777,-14.203 -1.282,-13.777 0.854,-13.777C3.524,-13.777 6.087,-16.446 6.087,-19.116C6.087,-21.252 5.34,-22.96 4.166,-24.455C0.961,-28.3 -4.698,-30.436 -12.067,-30.436C-21.786,-30.436 -30.97,-25.202 -30.97,-14.845C-30.97,-8.116 -27.765,-4.378 -23.066,-1.708C-19.328,0.427 -14.417,1.815 -9.611,3.524C-6.729,4.592 -4.805,6.407 -4.805,9.183C-4.805,12.175 -8.33,14.417 -12.601,14.417C-15.699,14.417 -18.796,12.067 -20.397,9.825C-21.999,7.582 -23.814,6.514 -26.911,6.514C-29.901,6.514 -32.465,8.757 -32.465,11.961C-32.465,14.417 -31.076,16.339 -29.795,17.834C-25.631,23.067 -18.687,25.096 -12.815,25.096C-0.961,25.096 7.582,19.222 7.582,7.369C7.582,0.747 4.379,-2.883 0,-5.34" style="fill:white;fill-rule:nonzero;"/>
            </g>
            <g transform="matrix(4.16667,0,0,4.16667,627.577,354.811)">
                <path d="M0,-33.212C5.02,-33.212 8.329,-29.688 8.758,-22.532L-9.823,-22.532C-9.078,-29.475 -5.231,-33.212 0,-33.212M18.154,3.418C19.33,2.136 20.291,0.428 20.291,-1.602C20.291,-4.378 17.835,-7.368 14.203,-7.368C11.642,-7.368 10.146,-6.087 9.077,-4.592C6.834,-1.708 4.059,0.106 0.428,0.106C-5.659,0.106 -9.504,-5.019 -9.823,-14.63L14.845,-14.63C19.543,-14.63 21.893,-17.192 21.893,-21.038C21.893,-34.066 13.99,-44.425 0.321,-44.425C-13.776,-44.425 -22.639,-33.426 -22.639,-16.873C-22.639,-0.214 -14.096,11.213 0.215,11.213C7.263,11.213 13.884,8.544 18.154,3.418" style="fill:white;fill-rule:nonzero;"/>
            </g>
            <g transform="matrix(4.16667,0,0,4.16667,760.044,495.425)">
                <path d="M0,-77.425C-3.632,-77.425 -6.302,-74.755 -6.302,-71.338L-6.302,-16.767C-6.302,-12.922 -6.835,-10.572 -9.399,-10.572C-11.961,-10.572 -12.603,-13.029 -15.486,-13.029C-17.835,-13.029 -20.719,-11.427 -20.719,-7.582C-20.719,-1.817 -13.991,0 -8.545,0C2.027,0 6.406,-6.729 6.406,-17.514L6.406,-71.338C6.406,-74.755 3.63,-77.425 0,-77.425" style="fill:white;fill-rule:nonzero;"/>
            </g>
            <g transform="matrix(4.16667,0,0,4.16667,913.653,236.004)">
                <path d="M0,23.922C-1.816,27.126 -4.807,29.582 -8.864,29.582C-12.496,29.582 -14.632,27.66 -14.632,24.136C-14.632,21.573 -13.457,20.077 -11.642,19.116C-8.864,17.621 -4.166,17.194 0,14.951L0,23.922ZM12.494,26.165L12.494,2.564C12.494,-12.067 4.805,-15.805 -5.448,-15.805C-12.709,-15.805 -17.407,-13.883 -20.611,-10.892C-23.068,-8.543 -24.563,-5.553 -24.563,-2.562C-24.563,0.962 -22.534,3.631 -18.689,3.631C-15.593,3.631 -14.204,1.817 -12.922,0.108C-11.001,-2.456 -9.612,-4.057 -5.874,-4.057C-1.924,-4.057 -0.321,-2.349 -0.321,1.923L-0.321,8.224C-5.448,10.786 -13.67,10.466 -19.437,13.136C-23.175,14.845 -27.02,18.155 -27.02,25.525C-27.02,34.922 -20.826,39.727 -12.815,39.727C-6.409,39.727 -1.602,36.736 1.28,31.825C1.814,34.815 3.31,38.873 8.115,38.873C12.387,38.873 14.63,35.776 14.63,32.999C14.63,30.33 12.494,29.262 12.494,26.165" style="fill:white;fill-rule:nonzero;"/>
            </g>
            <g transform="matrix(4.16667,0,0,4.16667,72.0396,207.42)">
                <path d="M0,43.993L-0.682,44.631L-1.364,43.993C-8.128,37.682 -12.008,28.78 -12.008,19.568C-12.008,10.355 -8.128,1.453 -1.363,-4.858L-1.364,-4.858L-0.682,-5.495L0.001,-4.858C6.765,1.453 10.644,10.356 10.644,19.568C10.644,28.78 6.765,37.682 0,43.993M13.528,16.813C13.492,16.34 13.453,15.87 13.398,15.403C13.371,15.16 13.337,14.918 13.304,14.676C13.241,14.214 13.174,13.774 13.099,13.338C13.057,13.098 13.014,12.855 12.966,12.613C12.878,12.159 12.779,11.707 12.674,11.259L12.527,10.635C12.389,10.09 12.236,9.55 12.072,9.013L11.98,8.697C11.574,7.403 11.082,6.103 10.521,4.844L10.403,4.589C10.158,4.05 9.901,3.516 9.631,2.991L9.478,2.698C9.199,2.171 8.908,1.648 8.604,1.133L8.488,0.937C6.095,-3.055 3.006,-6.512 -0.693,-9.341C-1.965,-8.363 -3.21,-7.266 -4.399,-6.073L-4.547,-5.925C-4.714,-5.757 -4.88,-5.59 -5.044,-5.418C-5.18,-5.276 -5.312,-5.126 -5.446,-4.977L-5.633,-4.768C-7.069,-3.174 -8.354,-1.478 -9.455,0.276L-9.55,0.424C-9.847,0.903 -10.134,1.389 -10.409,1.882C-13.417,7.295 -15.008,13.411 -15.008,19.568C-15.008,24.993 -13.833,30.221 -11.517,35.107L-11.093,36.004C-10.406,37.353 -9.634,38.666 -8.795,39.906L-8.657,40.088C-7.269,42.111 -5.68,43.991 -3.924,45.693L-3.041,46.549L-4.057,47.239C-6.037,48.583 -8.2,49.721 -10.495,50.628C-10.089,51.533 -9.634,52.44 -9.136,53.334C-6.354,52.204 -3.711,50.726 -1.273,48.937L-0.682,48.504L-0.09,48.937C2.338,50.721 4.974,52.195 7.752,53.325C8.234,52.457 8.688,51.55 9.106,50.617C6.819,49.712 4.663,48.577 2.693,47.24L1.677,46.549L2.56,45.693C4.259,44.045 5.805,42.224 7.151,40.283C8.337,38.576 9.389,36.741 10.276,34.829C10.504,34.338 10.726,33.842 10.932,33.337L10.977,33.233C11.193,32.702 11.398,32.149 11.594,31.593L11.711,31.247C11.892,30.717 12.047,30.226 12.191,29.733L12.271,29.467C12.431,28.902 12.579,28.322 12.714,27.736L12.789,27.391C12.896,26.901 12.994,26.407 13.083,25.908L13.154,25.509C13.25,24.924 13.336,24.328 13.404,23.727L13.432,23.461C13.486,22.938 13.53,22.417 13.563,21.892L13.593,21.404C13.622,20.801 13.644,20.186 13.644,19.568C13.644,18.857 13.618,18.163 13.58,17.475L13.528,16.813Z" style="fill:rgb(193,213,49);fill-rule:nonzero;"/>
            </g>
            <g transform="matrix(-4.16667,0,0,4.16667,760.545,156.963)">
                <path d="M0,-12.573C3.472,-12.573 6.286,-9.759 6.286,-6.287C6.286,-2.814 3.472,0 0,0C-3.472,0 -6.286,-2.814 -6.286,-6.287C-6.286,-9.759 -3.472,-12.573 0,-12.573" style="fill:rgb(193,213,49);fill-rule:nonzero;"/>
            </g>
        </g>
    </g>
</svg>
