<?xml version="1.0" encoding="UTF-8" standalone="no"?>
<!DOCTYPE svg PUBLIC "-//W3C//DTD SVG 1.1//EN" "http://www.w3.org/Graphics/SVG/1.1/DTD/svg11.dtd">
<svg width="100%" height="100%" viewBox="0 0 60 60" version="1.1" xmlns="http://www.w3.org/2000/svg" xmlns:xlink="http://www.w3.org/1999/xlink" xml:space="preserve" xmlns:serif="http://www.serif.com/" style="fill-rule:evenodd;clip-rule:evenodd;stroke-linejoin:round;stroke-miterlimit:2;">
    <rect id="Artboard1" x="0" y="0" width="60" height="60" style="fill:none;"/>
    <g id="Artboard11" serif:id="Artboard1">
        <g transform="matrix(0.398245,0,0,0.398245,-134.943,-50.703)">
            <g transform="matrix(0,-1,-1,0,414.174,129.827)">
                <path d="M-72.819,-72.819C-113.036,-72.819 -145.639,-40.216 -145.639,-0C-145.639,40.217 -113.036,72.819 -72.819,72.819C-32.602,72.819 -0,40.217 -0,-0C-0,-40.216 -32.602,-72.819 -72.819,-72.819" style="fill:rgb(64,63,65);fill-rule:nonzero;"/>
            </g>
            <g>
                <clipPath id="_clip1">
                    <path d="M341.355,202.647C341.355,242.863 373.957,275.466 414.174,275.466C454.39,275.466 486.994,242.863 486.994,202.647C486.994,162.429 454.39,129.827 414.174,129.827C373.957,129.827 341.355,162.429 341.355,202.647Z" clip-rule="nonzero"/>
                </clipPath>
                <g clip-path="url(#_clip1)">
                    <g transform="matrix(-1,0,0,1,735.067,133.466)">
                        <rect x="344.213" y="108.253" width="46.641" height="52.264" style="fill:rgb(236,0,140);"/>
                    </g>
                    <g transform="matrix(-1,0,0,1,828.347,133.466)">
                        <rect x="390.853" y="108.253" width="46.641" height="52.264" style="fill:rgb(18,186,178);"/>
                    </g>
                    <g transform="matrix(-1,0,0,1,921.629,133.466)">
                        <rect x="437.494" y="108.253" width="46.641" height="52.264" style="fill:rgb(193,213,49);"/>
                    </g>
                </g>
            </g>
            <g transform="matrix(1,0,0,1,398.528,238.491)">
                <path d="M0,-21.107C0,-19.393 -1.644,-17.68 -3.357,-17.68C-4.729,-17.68 -5.688,-17.955 -6.441,-18.708C-7.126,-19.325 -7.538,-19.942 -8.429,-20.695C-9.252,-21.38 -10.622,-21.929 -12.403,-21.929C-14.733,-21.929 -15.968,-20.695 -15.968,-19.051C-15.968,-17.612 -14.94,-16.72 -13.363,-15.966C-10.827,-14.733 -6.989,-14.047 -3.906,-12.266C-1.096,-10.69 0.96,-8.36 0.96,-4.111C0.96,3.497 -4.522,7.265 -12.13,7.265C-15.898,7.265 -20.354,5.963 -23.026,2.605C-23.849,1.646 -24.74,0.413 -24.74,-1.164C-24.74,-3.22 -23.095,-4.66 -21.176,-4.66C-19.188,-4.66 -18.023,-3.974 -16.996,-2.535C-15.968,-1.095 -13.98,0.413 -11.992,0.413C-9.252,0.413 -6.989,-1.027 -6.989,-2.946C-6.989,-4.728 -8.224,-5.893 -10.074,-6.578C-13.158,-7.674 -16.31,-8.566 -18.709,-9.936C-21.724,-11.649 -23.78,-14.047 -23.78,-18.366C-23.78,-25.013 -17.887,-28.372 -11.65,-28.372C-6.921,-28.372 -3.289,-27.001 -1.232,-24.534C-0.479,-23.574 0,-22.477 0,-21.107" style="fill:white;fill-rule:nonzero;"/>
            </g>
            <g transform="matrix(1,0,0,1,414.505,238.56)">
                <path d="M0,-21.313C-3.357,-21.313 -5.825,-18.915 -6.305,-14.459L5.62,-14.459C5.345,-19.051 3.221,-21.313 0,-21.313M-6.305,-9.388C-6.1,-3.22 -3.632,0.069 0.274,0.069C2.604,0.069 4.386,-1.096 5.825,-2.947C6.511,-3.906 7.471,-4.729 9.114,-4.729C11.445,-4.729 13.021,-2.809 13.021,-1.027C13.021,0.275 12.404,1.371 11.65,2.194C8.909,5.483 4.66,7.196 0.138,7.196C-9.046,7.196 -14.528,-0.137 -14.528,-10.828C-14.528,-21.45 -8.841,-28.509 0.206,-28.509C8.978,-28.509 14.049,-21.862 14.049,-13.501C14.049,-11.033 12.541,-9.388 9.526,-9.388L-6.305,-9.388Z" style="fill:white;fill-rule:nonzero;"/>
            </g>
            <g transform="matrix(1,0,0,1,439.018,221.77)">
                <path d="M0,27.207C0,34.129 -2.81,38.446 -9.595,38.446C-13.089,38.446 -17.407,37.281 -17.407,33.58C-17.407,31.113 -15.557,30.085 -14.049,30.085C-12.198,30.085 -11.787,31.661 -10.143,31.661C-8.497,31.661 -8.155,30.154 -8.155,27.686L-8.155,-7.333C-8.155,-9.526 -6.441,-11.239 -4.111,-11.239C-1.782,-11.239 0,-9.526 0,-7.333L0,27.207Z" style="fill:white;fill-rule:nonzero;"/>
            </g>
            <g transform="matrix(1,0,0,1,458.564,226.018)">
                <path d="M0,3.838C-2.673,5.277 -5.688,5.552 -7.471,6.511C-8.635,7.128 -9.39,8.088 -9.39,9.733C-9.39,11.994 -8.019,13.228 -5.688,13.228C-3.084,13.228 -1.165,11.651 0,9.595L0,3.838ZM8.019,11.034C8.019,13.022 9.389,13.707 9.389,15.421C9.389,17.202 7.95,19.19 5.208,19.19C2.124,19.19 1.165,16.585 0.822,14.667C-1.027,17.818 -4.112,19.737 -8.224,19.737C-13.364,19.737 -17.339,16.654 -17.339,10.623C-17.339,5.895 -14.872,3.77 -12.473,2.673C-8.771,0.96 -3.496,1.165 -0.206,-0.479L-0.206,-4.522C-0.206,-7.264 -1.233,-8.36 -3.77,-8.36C-6.168,-8.36 -7.059,-7.333 -8.292,-5.687C-9.114,-4.591 -10.006,-3.426 -11.993,-3.426C-14.46,-3.426 -15.763,-5.14 -15.763,-7.401C-15.763,-9.32 -14.804,-11.239 -13.227,-12.746C-11.171,-14.665 -8.155,-15.899 -3.496,-15.899C3.084,-15.899 8.019,-13.5 8.019,-4.111L8.019,11.034Z" style="fill:white;fill-rule:nonzero;"/>
            </g>
            <g transform="matrix(0,-1,-1,0,434.984,200.02)">
                <path d="M-4.034,-4.034C-6.263,-4.034 -8.068,-2.228 -8.068,0C-8.068,2.228 -6.263,4.034 -4.034,4.034C-1.806,4.034 0,2.228 0,0C0,-2.228 -1.806,-4.034 -4.034,-4.034" style="fill:rgb(18,186,178);fill-rule:nonzero;"/>
            </g>
        </g>
    </g>
</svg>
